<?xml version="1.0" standalone="no"?><!DOCTYPE svg PUBLIC "-//W3C//DTD SVG 1.1//EN" "http://www.w3.org/Graphics/SVG/1.1/DTD/svg11.dtd"><svg t="1698680670627" class="icon" viewBox="0 0 1024 1024" version="1.1" xmlns="http://www.w3.org/2000/svg" p-id="3808" xmlns:xlink="http://www.w3.org/1999/xlink" width="200" height="200"><path d="M542.72 870.4h-10.24c-34.133333-3.413333-58.026667-30.72-64.853333-61.44l-30.72-208.213333c-3.413333-20.48 3.413333-40.96 17.066666-54.613334l92.16-109.226666c13.653333-13.653333 34.133333-17.066667 47.786667-3.413334 13.653333 13.653333 17.066667 34.133333 3.413333 47.786667l-92.16 109.226667 30.72 211.626666s0 3.413333 6.826667 6.826667c3.413333 0 6.826667 0 10.24-6.826667L832.853333 238.933333v-10.24c-3.413333-3.413333-6.826667-3.413333-10.24-3.413333L225.28 447.146667c-6.826667 3.413333-6.826667 6.826667-6.826667 10.24 0 6.826667 3.413333 6.826667 6.826667 6.826666l122.88 27.306667c17.066667 3.413333 30.72 23.893333 23.893333 40.96-3.413333 17.066667-23.893333 30.72-40.96 23.893333L204.8 525.653333c-34.133333-10.24-54.613333-37.546667-54.613333-71.68s17.066667-64.853333 51.2-75.093333l593.92-225.28c30.72-10.24 61.44-3.413333 85.333333 20.48 20.48 23.893333 27.306667 58.026667 10.24 85.333333l-279.893333 563.2c-13.653333 30.72-40.96 47.786667-68.266667 47.786667z" fill="#3E2AD1" p-id="3809"></path></svg>